<mxfile host="app.diagrams.net" modified="2022-06-10T22:43:44.152Z" agent="5.0 (Windows)" etag="a8nTo8SfAUcZkKyRdXhq" version="19.0.3" type="github">
  <diagram id="9kjxsSzBzSPPYm4meUas" name="Page-1">
    <mxGraphModel dx="2249" dy="780" grid="1" gridSize="10" guides="1" tooltips="1" connect="1" arrows="1" fold="1" page="1" pageScale="1" pageWidth="827" pageHeight="1169" math="0" shadow="0">
      <root>
        <mxCell id="0" />
        <mxCell id="1" parent="0" />
        <mxCell id="xTz2qVZ7E3CjBbWI0PWP-5" style="edgeStyle=orthogonalEdgeStyle;rounded=0;orthogonalLoop=1;jettySize=auto;html=1;exitX=0.5;exitY=1;exitDx=0;exitDy=0;" parent="1" source="xTz2qVZ7E3CjBbWI0PWP-1" target="xTz2qVZ7E3CjBbWI0PWP-3" edge="1">
          <mxGeometry relative="1" as="geometry" />
        </mxCell>
        <mxCell id="xTz2qVZ7E3CjBbWI0PWP-1" value="Trigger: Player returns to bridge" style="rounded=1;whiteSpace=wrap;html=1;fillColor=#d5e8d4;strokeColor=#82b366;" parent="1" vertex="1">
          <mxGeometry x="120" y="40" width="120" height="60" as="geometry" />
        </mxCell>
        <mxCell id="xTz2qVZ7E3CjBbWI0PWP-7" style="edgeStyle=orthogonalEdgeStyle;rounded=0;orthogonalLoop=1;jettySize=auto;html=1;exitX=0.5;exitY=1;exitDx=0;exitDy=0;entryX=0.5;entryY=0;entryDx=0;entryDy=0;" parent="1" source="xTz2qVZ7E3CjBbWI0PWP-2" target="xTz2qVZ7E3CjBbWI0PWP-3" edge="1">
          <mxGeometry relative="1" as="geometry" />
        </mxCell>
        <mxCell id="xTz2qVZ7E3CjBbWI0PWP-2" value="Trigger: Row gets Syd to turn around" style="rounded=1;whiteSpace=wrap;html=1;fillColor=#d5e8d4;strokeColor=#82b366;" parent="1" vertex="1">
          <mxGeometry x="280" y="40" width="120" height="60" as="geometry" />
        </mxCell>
        <mxCell id="JfqWmqjablxnrraqIKSU-7" style="edgeStyle=orthogonalEdgeStyle;rounded=0;orthogonalLoop=1;jettySize=auto;html=1;exitX=0.5;exitY=1;exitDx=0;exitDy=0;entryX=0.5;entryY=0;entryDx=0;entryDy=0;" parent="1" source="xTz2qVZ7E3CjBbWI0PWP-3" target="xTz2qVZ7E3CjBbWI0PWP-8" edge="1">
          <mxGeometry relative="1" as="geometry" />
        </mxCell>
        <mxCell id="xTz2qVZ7E3CjBbWI0PWP-3" value="(C)Syd: No way." style="rounded=0;whiteSpace=wrap;html=1;" parent="1" vertex="1">
          <mxGeometry x="200" y="140" width="120" height="60" as="geometry" />
        </mxCell>
        <mxCell id="JfqWmqjablxnrraqIKSU-8" style="edgeStyle=orthogonalEdgeStyle;rounded=0;orthogonalLoop=1;jettySize=auto;html=1;exitX=0.5;exitY=1;exitDx=0;exitDy=0;entryX=0.5;entryY=0;entryDx=0;entryDy=0;" parent="1" source="xTz2qVZ7E3CjBbWI0PWP-8" target="xTz2qVZ7E3CjBbWI0PWP-16" edge="1">
          <mxGeometry relative="1" as="geometry" />
        </mxCell>
        <mxCell id="xTz2qVZ7E3CjBbWI0PWP-8" value="(C)Row: It&#39;s impossible." style="rounded=0;whiteSpace=wrap;html=1;" parent="1" vertex="1">
          <mxGeometry x="200" y="220" width="120" height="60" as="geometry" />
        </mxCell>
        <mxCell id="JfqWmqjablxnrraqIKSU-12" style="edgeStyle=orthogonalEdgeStyle;rounded=0;orthogonalLoop=1;jettySize=auto;html=1;exitX=0.5;exitY=1;exitDx=0;exitDy=0;entryX=0.5;entryY=0;entryDx=0;entryDy=0;" parent="1" source="xTz2qVZ7E3CjBbWI0PWP-9" target="JfqWmqjablxnrraqIKSU-5" edge="1">
          <mxGeometry relative="1" as="geometry" />
        </mxCell>
        <mxCell id="xTz2qVZ7E3CjBbWI0PWP-9" value="(N)Syd: It should be here..." style="rounded=0;whiteSpace=wrap;html=1;" parent="1" vertex="1">
          <mxGeometry x="370" y="620" width="120" height="60" as="geometry" />
        </mxCell>
        <mxCell id="JfqWmqjablxnrraqIKSU-3" style="edgeStyle=orthogonalEdgeStyle;rounded=0;orthogonalLoop=1;jettySize=auto;html=1;exitX=0.5;exitY=1;exitDx=0;exitDy=0;" parent="1" source="xTz2qVZ7E3CjBbWI0PWP-10" target="xTz2qVZ7E3CjBbWI0PWP-9" edge="1">
          <mxGeometry relative="1" as="geometry" />
        </mxCell>
        <mxCell id="xTz2qVZ7E3CjBbWI0PWP-10" value="(C)Syd: We &lt;i&gt;just&lt;/i&gt; crossed it." style="rounded=0;whiteSpace=wrap;html=1;" parent="1" vertex="1">
          <mxGeometry x="370" y="540" width="120" height="60" as="geometry" />
        </mxCell>
        <mxCell id="JfqWmqjablxnrraqIKSU-57" style="edgeStyle=orthogonalEdgeStyle;rounded=0;orthogonalLoop=1;jettySize=auto;html=1;exitX=0.5;exitY=1;exitDx=0;exitDy=0;entryX=0.5;entryY=0;entryDx=0;entryDy=0;" parent="1" source="xTz2qVZ7E3CjBbWI0PWP-12" target="JfqWmqjablxnrraqIKSU-55" edge="1">
          <mxGeometry relative="1" as="geometry" />
        </mxCell>
        <mxCell id="xTz2qVZ7E3CjBbWI0PWP-12" value="(N)Syd: No. I don&#39;t think so. But let&#39;s not panic right now. Okay?" style="rounded=0;whiteSpace=wrap;html=1;" parent="1" vertex="1">
          <mxGeometry x="30" y="630" width="120" height="60" as="geometry" />
        </mxCell>
        <mxCell id="JfqWmqjablxnrraqIKSU-46" style="edgeStyle=orthogonalEdgeStyle;rounded=0;orthogonalLoop=1;jettySize=auto;html=1;exitX=0.5;exitY=1;exitDx=0;exitDy=0;entryX=0.5;entryY=0;entryDx=0;entryDy=0;" parent="1" source="xTz2qVZ7E3CjBbWI0PWP-13" target="JfqWmqjablxnrraqIKSU-44" edge="1">
          <mxGeometry relative="1" as="geometry" />
        </mxCell>
        <mxCell id="xTz2qVZ7E3CjBbWI0PWP-13" value="(N)Syd: You have to be kidding, Rowan." style="rounded=0;whiteSpace=wrap;html=1;" parent="1" vertex="1">
          <mxGeometry x="-130" y="540" width="120" height="60" as="geometry" />
        </mxCell>
        <mxCell id="JfqWmqjablxnrraqIKSU-11" style="edgeStyle=orthogonalEdgeStyle;rounded=0;orthogonalLoop=1;jettySize=auto;html=1;exitX=0.5;exitY=1;exitDx=0;exitDy=0;entryX=0.5;entryY=0;entryDx=0;entryDy=0;" parent="1" source="xTz2qVZ7E3CjBbWI0PWP-14" target="xTz2qVZ7E3CjBbWI0PWP-25" edge="1">
          <mxGeometry relative="1" as="geometry" />
        </mxCell>
        <mxCell id="xTz2qVZ7E3CjBbWI0PWP-14" value="(N)Row: M-maybe we&#39;re just looking in the wrong direction?" style="rounded=0;whiteSpace=wrap;html=1;" parent="1" vertex="1">
          <mxGeometry x="200" y="460" width="120" height="60" as="geometry" />
        </mxCell>
        <mxCell id="JfqWmqjablxnrraqIKSU-10" style="edgeStyle=orthogonalEdgeStyle;rounded=0;orthogonalLoop=1;jettySize=auto;html=1;exitX=0.5;exitY=1;exitDx=0;exitDy=0;entryX=0.5;entryY=0;entryDx=0;entryDy=0;" parent="1" source="xTz2qVZ7E3CjBbWI0PWP-15" target="xTz2qVZ7E3CjBbWI0PWP-14" edge="1">
          <mxGeometry relative="1" as="geometry" />
        </mxCell>
        <mxCell id="xTz2qVZ7E3CjBbWI0PWP-15" value="&lt;div&gt;*Screen Shake*&lt;br&gt;&lt;/div&gt;&lt;div&gt;(D)Syd: It&#39;s &lt;i&gt;gone&lt;/i&gt;?!&lt;/div&gt;" style="rounded=0;whiteSpace=wrap;html=1;" parent="1" vertex="1">
          <mxGeometry x="200" y="380" width="120" height="60" as="geometry" />
        </mxCell>
        <mxCell id="JfqWmqjablxnrraqIKSU-9" style="edgeStyle=orthogonalEdgeStyle;rounded=0;orthogonalLoop=1;jettySize=auto;html=1;exitX=0.5;exitY=1;exitDx=0;exitDy=0;entryX=0.5;entryY=0;entryDx=0;entryDy=0;" parent="1" source="xTz2qVZ7E3CjBbWI0PWP-16" target="xTz2qVZ7E3CjBbWI0PWP-15" edge="1">
          <mxGeometry relative="1" as="geometry" />
        </mxCell>
        <mxCell id="xTz2qVZ7E3CjBbWI0PWP-16" value="(C)Row: The bridge..." style="rounded=0;whiteSpace=wrap;html=1;" parent="1" vertex="1">
          <mxGeometry x="200" y="300" width="120" height="60" as="geometry" />
        </mxCell>
        <mxCell id="xTz2qVZ7E3CjBbWI0PWP-18" value="Blunt" style="edgeStyle=orthogonalEdgeStyle;rounded=0;orthogonalLoop=1;jettySize=auto;html=1;exitX=0;exitY=0.5;exitDx=0;exitDy=0;entryX=1;entryY=0.5;entryDx=0;entryDy=0;" parent="1" source="xTz2qVZ7E3CjBbWI0PWP-17" target="xTz2qVZ7E3CjBbWI0PWP-13" edge="1">
          <mxGeometry relative="1" as="geometry" />
        </mxCell>
        <mxCell id="xTz2qVZ7E3CjBbWI0PWP-19" value="Soothing" style="edgeStyle=orthogonalEdgeStyle;rounded=0;orthogonalLoop=1;jettySize=auto;html=1;exitX=0.5;exitY=1;exitDx=0;exitDy=0;entryX=0.5;entryY=0;entryDx=0;entryDy=0;" parent="1" source="xTz2qVZ7E3CjBbWI0PWP-17" target="xTz2qVZ7E3CjBbWI0PWP-12" edge="1">
          <mxGeometry relative="1" as="geometry" />
        </mxCell>
        <mxCell id="xTz2qVZ7E3CjBbWI0PWP-17" value="Dialogue Choice" style="rhombus;whiteSpace=wrap;html=1;fillColor=#fff2cc;strokeColor=#d6b656;" parent="1" vertex="1">
          <mxGeometry x="30" y="530" width="120" height="80" as="geometry" />
        </mxCell>
        <mxCell id="JfqWmqjablxnrraqIKSU-1" value="No" style="edgeStyle=orthogonalEdgeStyle;rounded=0;orthogonalLoop=1;jettySize=auto;html=1;exitX=0;exitY=0.5;exitDx=0;exitDy=0;entryX=1;entryY=0.5;entryDx=0;entryDy=0;" parent="1" source="xTz2qVZ7E3CjBbWI0PWP-25" target="xTz2qVZ7E3CjBbWI0PWP-17" edge="1">
          <mxGeometry relative="1" as="geometry" />
        </mxCell>
        <mxCell id="JfqWmqjablxnrraqIKSU-2" value="Yes" style="edgeStyle=orthogonalEdgeStyle;rounded=0;orthogonalLoop=1;jettySize=auto;html=1;exitX=1;exitY=0.5;exitDx=0;exitDy=0;entryX=0;entryY=0.5;entryDx=0;entryDy=0;" parent="1" source="xTz2qVZ7E3CjBbWI0PWP-25" target="xTz2qVZ7E3CjBbWI0PWP-10" edge="1">
          <mxGeometry relative="1" as="geometry" />
        </mxCell>
        <mxCell id="xTz2qVZ7E3CjBbWI0PWP-25" value="&lt;div&gt;Is &lt;br&gt;&lt;/div&gt;&lt;div&gt;BG01 Bridge Trick unlocked?&lt;/div&gt;" style="shape=trapezoid;perimeter=trapezoidPerimeter;whiteSpace=wrap;html=1;fixedSize=1;fillColor=#dae8fc;strokeColor=#6c8ebf;" parent="1" vertex="1">
          <mxGeometry x="200" y="540" width="120" height="60" as="geometry" />
        </mxCell>
        <mxCell id="JfqWmqjablxnrraqIKSU-13" style="edgeStyle=orthogonalEdgeStyle;rounded=0;orthogonalLoop=1;jettySize=auto;html=1;exitX=0.5;exitY=1;exitDx=0;exitDy=0;entryX=0.5;entryY=0;entryDx=0;entryDy=0;" parent="1" source="JfqWmqjablxnrraqIKSU-5" target="JfqWmqjablxnrraqIKSU-6" edge="1">
          <mxGeometry relative="1" as="geometry" />
        </mxCell>
        <mxCell id="JfqWmqjablxnrraqIKSU-5" value="&lt;div&gt;*Screen Shake*&lt;/div&gt;&lt;div&gt;(D)Syd: &lt;i&gt;Why&lt;/i&gt; isn&#39;t it here?!?&lt;br&gt;&lt;/div&gt;" style="rounded=0;whiteSpace=wrap;html=1;" parent="1" vertex="1">
          <mxGeometry x="370" y="700" width="120" height="60" as="geometry" />
        </mxCell>
        <mxCell id="JfqWmqjablxnrraqIKSU-15" style="edgeStyle=orthogonalEdgeStyle;rounded=0;orthogonalLoop=1;jettySize=auto;html=1;exitX=0.5;exitY=1;exitDx=0;exitDy=0;entryX=0.5;entryY=0;entryDx=0;entryDy=0;" parent="1" source="JfqWmqjablxnrraqIKSU-6" target="JfqWmqjablxnrraqIKSU-14" edge="1">
          <mxGeometry relative="1" as="geometry" />
        </mxCell>
        <mxCell id="JfqWmqjablxnrraqIKSU-6" value="(S)Row: Hey, Sydney. Calm down, I&#39;m sure there&#39;s a reasonable explanation to this..." style="rounded=0;whiteSpace=wrap;html=1;" parent="1" vertex="1">
          <mxGeometry x="370" y="780" width="120" height="60" as="geometry" />
        </mxCell>
        <mxCell id="JfqWmqjablxnrraqIKSU-18" value="Reasonable?!" style="edgeStyle=orthogonalEdgeStyle;rounded=0;orthogonalLoop=1;jettySize=auto;html=1;exitX=1;exitY=0.5;exitDx=0;exitDy=0;entryX=0.5;entryY=0;entryDx=0;entryDy=0;" parent="1" source="JfqWmqjablxnrraqIKSU-14" target="JfqWmqjablxnrraqIKSU-16" edge="1">
          <mxGeometry relative="1" as="geometry" />
        </mxCell>
        <mxCell id="JfqWmqjablxnrraqIKSU-19" value="Deep Breaths" style="edgeStyle=orthogonalEdgeStyle;rounded=0;orthogonalLoop=1;jettySize=auto;html=1;exitX=0;exitY=0.5;exitDx=0;exitDy=0;entryX=0.5;entryY=0;entryDx=0;entryDy=0;" parent="1" source="JfqWmqjablxnrraqIKSU-14" target="JfqWmqjablxnrraqIKSU-17" edge="1">
          <mxGeometry relative="1" as="geometry" />
        </mxCell>
        <mxCell id="JfqWmqjablxnrraqIKSU-14" value="Dialogue Choice" style="rhombus;whiteSpace=wrap;html=1;fillColor=#fff2cc;strokeColor=#d6b656;" parent="1" vertex="1">
          <mxGeometry x="370" y="860" width="120" height="80" as="geometry" />
        </mxCell>
        <mxCell id="JfqWmqjablxnrraqIKSU-21" style="edgeStyle=orthogonalEdgeStyle;rounded=0;orthogonalLoop=1;jettySize=auto;html=1;exitX=0.5;exitY=1;exitDx=0;exitDy=0;entryX=0.5;entryY=0;entryDx=0;entryDy=0;" parent="1" source="JfqWmqjablxnrraqIKSU-16" target="JfqWmqjablxnrraqIKSU-20" edge="1">
          <mxGeometry relative="1" as="geometry" />
        </mxCell>
        <mxCell id="JfqWmqjablxnrraqIKSU-16" value="(A)Syd: &lt;i&gt;Reasonable?! &lt;/i&gt;Rowan! The bridge is missing!" style="rounded=0;whiteSpace=wrap;html=1;" parent="1" vertex="1">
          <mxGeometry x="480" y="940" width="120" height="60" as="geometry" />
        </mxCell>
        <mxCell id="JfqWmqjablxnrraqIKSU-70" style="edgeStyle=orthogonalEdgeStyle;rounded=0;orthogonalLoop=1;jettySize=auto;html=1;exitX=0.5;exitY=1;exitDx=0;exitDy=0;entryX=0.5;entryY=0;entryDx=0;entryDy=0;" parent="1" source="JfqWmqjablxnrraqIKSU-17" target="JfqWmqjablxnrraqIKSU-66" edge="1">
          <mxGeometry relative="1" as="geometry" />
        </mxCell>
        <mxCell id="JfqWmqjablxnrraqIKSU-17" value="(N)Syd: Okay. Okay, you&#39;re right. Maybe I&#39;m just... sleep deprived." style="rounded=0;whiteSpace=wrap;html=1;" parent="1" vertex="1">
          <mxGeometry x="260" y="940" width="120" height="60" as="geometry" />
        </mxCell>
        <mxCell id="JfqWmqjablxnrraqIKSU-20" value="(A)Syd: Don&#39;t tell me to be &lt;i&gt;reasonable&lt;/i&gt; right now. God." style="rounded=0;whiteSpace=wrap;html=1;" parent="1" vertex="1">
          <mxGeometry x="480" y="1030" width="120" height="60" as="geometry" />
        </mxCell>
        <mxCell id="JfqWmqjablxnrraqIKSU-31" style="edgeStyle=orthogonalEdgeStyle;rounded=0;orthogonalLoop=1;jettySize=auto;html=1;exitX=0.5;exitY=1;exitDx=0;exitDy=0;entryX=0.5;entryY=0;entryDx=0;entryDy=0;" parent="1" source="JfqWmqjablxnrraqIKSU-22" target="JfqWmqjablxnrraqIKSU-24" edge="1">
          <mxGeometry relative="1" as="geometry" />
        </mxCell>
        <mxCell id="JfqWmqjablxnrraqIKSU-22" value="(N)Row: You don&#39;t think I&#39;m scared?" style="rounded=0;whiteSpace=wrap;html=1;" parent="1" vertex="1">
          <mxGeometry x="480" y="1190" width="120" height="60" as="geometry" />
        </mxCell>
        <mxCell id="JfqWmqjablxnrraqIKSU-32" style="edgeStyle=orthogonalEdgeStyle;rounded=0;orthogonalLoop=1;jettySize=auto;html=1;exitX=0.5;exitY=1;exitDx=0;exitDy=0;entryX=0.5;entryY=0;entryDx=0;entryDy=0;" parent="1" source="JfqWmqjablxnrraqIKSU-24" target="JfqWmqjablxnrraqIKSU-26" edge="1">
          <mxGeometry relative="1" as="geometry" />
        </mxCell>
        <mxCell id="JfqWmqjablxnrraqIKSU-24" value="(A)Row: You don&#39;t think I&#39;m freaking out?!" style="rounded=0;whiteSpace=wrap;html=1;" parent="1" vertex="1">
          <mxGeometry x="480" y="1270" width="120" height="60" as="geometry" />
        </mxCell>
        <mxCell id="JfqWmqjablxnrraqIKSU-29" value="Apologise" style="edgeStyle=orthogonalEdgeStyle;rounded=0;orthogonalLoop=1;jettySize=auto;html=1;exitX=1;exitY=0.5;exitDx=0;exitDy=0;entryX=0.5;entryY=0;entryDx=0;entryDy=0;" parent="1" source="JfqWmqjablxnrraqIKSU-26" target="JfqWmqjablxnrraqIKSU-27" edge="1">
          <mxGeometry relative="1" as="geometry" />
        </mxCell>
        <mxCell id="JfqWmqjablxnrraqIKSU-30" value="Don&#39;t Say Anything" style="edgeStyle=orthogonalEdgeStyle;rounded=0;orthogonalLoop=1;jettySize=auto;html=1;exitX=0;exitY=0.5;exitDx=0;exitDy=0;entryX=0.5;entryY=0;entryDx=0;entryDy=0;" parent="1" source="JfqWmqjablxnrraqIKSU-26" target="JfqWmqjablxnrraqIKSU-28" edge="1">
          <mxGeometry relative="1" as="geometry" />
        </mxCell>
        <mxCell id="JfqWmqjablxnrraqIKSU-26" value="Dialogue Choice" style="rhombus;whiteSpace=wrap;html=1;fillColor=#fff2cc;strokeColor=#d6b656;" parent="1" vertex="1">
          <mxGeometry x="480" y="1350" width="120" height="80" as="geometry" />
        </mxCell>
        <mxCell id="JfqWmqjablxnrraqIKSU-37" style="edgeStyle=orthogonalEdgeStyle;rounded=0;orthogonalLoop=1;jettySize=auto;html=1;exitX=0.5;exitY=1;exitDx=0;exitDy=0;entryX=0.5;entryY=0;entryDx=0;entryDy=0;" parent="1" source="JfqWmqjablxnrraqIKSU-27" target="JfqWmqjablxnrraqIKSU-36" edge="1">
          <mxGeometry relative="1" as="geometry" />
        </mxCell>
        <mxCell id="JfqWmqjablxnrraqIKSU-27" value="(S)Syd: I&#39;m sorry." style="rounded=0;whiteSpace=wrap;html=1;" parent="1" vertex="1">
          <mxGeometry x="590" y="1430" width="120" height="60" as="geometry" />
        </mxCell>
        <mxCell id="JfqWmqjablxnrraqIKSU-43" style="edgeStyle=orthogonalEdgeStyle;rounded=0;orthogonalLoop=1;jettySize=auto;html=1;exitX=0.5;exitY=1;exitDx=0;exitDy=0;" parent="1" source="JfqWmqjablxnrraqIKSU-28" target="JfqWmqjablxnrraqIKSU-42" edge="1">
          <mxGeometry relative="1" as="geometry" />
        </mxCell>
        <mxCell id="JfqWmqjablxnrraqIKSU-28" value="(A)Row: Yeah. Whatever." style="rounded=0;whiteSpace=wrap;html=1;" parent="1" vertex="1">
          <mxGeometry x="370" y="1430" width="120" height="60" as="geometry" />
        </mxCell>
        <mxCell id="JfqWmqjablxnrraqIKSU-35" style="edgeStyle=orthogonalEdgeStyle;rounded=0;orthogonalLoop=1;jettySize=auto;html=1;exitX=0.5;exitY=1;exitDx=0;exitDy=0;" parent="1" source="JfqWmqjablxnrraqIKSU-34" target="JfqWmqjablxnrraqIKSU-22" edge="1">
          <mxGeometry relative="1" as="geometry" />
        </mxCell>
        <mxCell id="JfqWmqjablxnrraqIKSU-34" value="You Fucked It +1" style="shape=parallelogram;perimeter=parallelogramPerimeter;whiteSpace=wrap;html=1;fixedSize=1;fillColor=#ffe6cc;strokeColor=#d79b00;" parent="1" vertex="1">
          <mxGeometry x="480" y="1110" width="120" height="60" as="geometry" />
        </mxCell>
        <mxCell id="JfqWmqjablxnrraqIKSU-39" style="edgeStyle=orthogonalEdgeStyle;rounded=0;orthogonalLoop=1;jettySize=auto;html=1;exitX=0.5;exitY=1;exitDx=0;exitDy=0;entryX=0.5;entryY=0;entryDx=0;entryDy=0;" parent="1" source="JfqWmqjablxnrraqIKSU-36" target="JfqWmqjablxnrraqIKSU-38" edge="1">
          <mxGeometry relative="1" as="geometry" />
        </mxCell>
        <mxCell id="JfqWmqjablxnrraqIKSU-36" value="You Fucked It -1" style="shape=parallelogram;perimeter=parallelogramPerimeter;whiteSpace=wrap;html=1;fixedSize=1;fillColor=#ffe6cc;strokeColor=#d79b00;" parent="1" vertex="1">
          <mxGeometry x="590" y="1510" width="120" height="60" as="geometry" />
        </mxCell>
        <mxCell id="JfqWmqjablxnrraqIKSU-41" style="edgeStyle=orthogonalEdgeStyle;rounded=0;orthogonalLoop=1;jettySize=auto;html=1;exitX=0.5;exitY=1;exitDx=0;exitDy=0;entryX=0.5;entryY=0;entryDx=0;entryDy=0;" parent="1" source="JfqWmqjablxnrraqIKSU-38" target="JfqWmqjablxnrraqIKSU-40" edge="1">
          <mxGeometry relative="1" as="geometry" />
        </mxCell>
        <mxCell id="JfqWmqjablxnrraqIKSU-38" value="(S)Syd: This is all just..." style="rounded=0;whiteSpace=wrap;html=1;" parent="1" vertex="1">
          <mxGeometry x="590" y="1590" width="120" height="60" as="geometry" />
        </mxCell>
        <mxCell id="JfqWmqjablxnrraqIKSU-74" style="edgeStyle=orthogonalEdgeStyle;rounded=0;orthogonalLoop=1;jettySize=auto;html=1;exitX=0;exitY=0.5;exitDx=0;exitDy=0;entryX=1;entryY=0.5;entryDx=0;entryDy=0;" parent="1" source="JfqWmqjablxnrraqIKSU-40" target="JfqWmqjablxnrraqIKSU-67" edge="1">
          <mxGeometry relative="1" as="geometry">
            <Array as="points">
              <mxPoint x="260" y="1700" />
              <mxPoint x="260" y="1310" />
            </Array>
          </mxGeometry>
        </mxCell>
        <mxCell id="JfqWmqjablxnrraqIKSU-40" value="(S)Row: ... I know." style="rounded=0;whiteSpace=wrap;html=1;" parent="1" vertex="1">
          <mxGeometry x="590" y="1670" width="120" height="60" as="geometry" />
        </mxCell>
        <mxCell id="JfqWmqjablxnrraqIKSU-72" style="edgeStyle=orthogonalEdgeStyle;rounded=0;orthogonalLoop=1;jettySize=auto;html=1;exitX=0;exitY=0.5;exitDx=0;exitDy=0;entryX=1;entryY=0.5;entryDx=0;entryDy=0;" parent="1" source="JfqWmqjablxnrraqIKSU-42" target="JfqWmqjablxnrraqIKSU-67" edge="1">
          <mxGeometry relative="1" as="geometry" />
        </mxCell>
        <mxCell id="JfqWmqjablxnrraqIKSU-42" value="You Fucked It +1" style="shape=parallelogram;perimeter=parallelogramPerimeter;whiteSpace=wrap;html=1;fixedSize=1;fillColor=#ffe6cc;strokeColor=#d79b00;" parent="1" vertex="1">
          <mxGeometry x="370" y="1510" width="120" height="60" as="geometry" />
        </mxCell>
        <mxCell id="JfqWmqjablxnrraqIKSU-47" style="edgeStyle=orthogonalEdgeStyle;rounded=0;orthogonalLoop=1;jettySize=auto;html=1;exitX=0.5;exitY=1;exitDx=0;exitDy=0;entryX=0.5;entryY=0;entryDx=0;entryDy=0;" parent="1" source="JfqWmqjablxnrraqIKSU-44" target="JfqWmqjablxnrraqIKSU-45" edge="1">
          <mxGeometry relative="1" as="geometry" />
        </mxCell>
        <mxCell id="JfqWmqjablxnrraqIKSU-44" value="(N)Syd: &quot;The wrong direction&quot;?" style="rounded=0;whiteSpace=wrap;html=1;" parent="1" vertex="1">
          <mxGeometry x="-130" y="620" width="120" height="60" as="geometry" />
        </mxCell>
        <mxCell id="JfqWmqjablxnrraqIKSU-49" style="edgeStyle=orthogonalEdgeStyle;rounded=0;orthogonalLoop=1;jettySize=auto;html=1;exitX=0.5;exitY=1;exitDx=0;exitDy=0;entryX=0.5;entryY=0;entryDx=0;entryDy=0;" parent="1" source="JfqWmqjablxnrraqIKSU-45" target="JfqWmqjablxnrraqIKSU-48" edge="1">
          <mxGeometry relative="1" as="geometry" />
        </mxCell>
        <mxCell id="JfqWmqjablxnrraqIKSU-45" value="*Screen Shake*&lt;br&gt;(A)Syd: &lt;i&gt;We&#39;re looking at the river!&lt;/i&gt;" style="rounded=0;whiteSpace=wrap;html=1;" parent="1" vertex="1">
          <mxGeometry x="-130" y="700" width="120" height="60" as="geometry" />
        </mxCell>
        <mxCell id="JfqWmqjablxnrraqIKSU-52" style="edgeStyle=orthogonalEdgeStyle;rounded=0;orthogonalLoop=1;jettySize=auto;html=1;exitX=0.5;exitY=1;exitDx=0;exitDy=0;entryX=0.5;entryY=0;entryDx=0;entryDy=0;" parent="1" source="JfqWmqjablxnrraqIKSU-48" target="JfqWmqjablxnrraqIKSU-50" edge="1">
          <mxGeometry relative="1" as="geometry" />
        </mxCell>
        <mxCell id="JfqWmqjablxnrraqIKSU-48" value="You Fucked It +1" style="shape=parallelogram;perimeter=parallelogramPerimeter;whiteSpace=wrap;html=1;fixedSize=1;fillColor=#ffe6cc;strokeColor=#d79b00;" parent="1" vertex="1">
          <mxGeometry x="-130" y="780" width="120" height="60" as="geometry" />
        </mxCell>
        <mxCell id="JfqWmqjablxnrraqIKSU-64" style="edgeStyle=orthogonalEdgeStyle;rounded=0;orthogonalLoop=1;jettySize=auto;html=1;exitX=0.5;exitY=1;exitDx=0;exitDy=0;entryX=0.5;entryY=0;entryDx=0;entryDy=0;" parent="1" source="JfqWmqjablxnrraqIKSU-50" target="JfqWmqjablxnrraqIKSU-53" edge="1">
          <mxGeometry relative="1" as="geometry" />
        </mxCell>
        <mxCell id="JfqWmqjablxnrraqIKSU-50" value="(A)Row: I &lt;i&gt;know&lt;/i&gt;. I just have no idea how an entire bridge disappears. " style="rounded=0;whiteSpace=wrap;html=1;" parent="1" vertex="1">
          <mxGeometry x="-130" y="860" width="120" height="60" as="geometry" />
        </mxCell>
        <mxCell id="JfqWmqjablxnrraqIKSU-68" style="edgeStyle=orthogonalEdgeStyle;rounded=0;orthogonalLoop=1;jettySize=auto;html=1;exitX=0.5;exitY=1;exitDx=0;exitDy=0;entryX=0.5;entryY=0;entryDx=0;entryDy=0;" parent="1" source="JfqWmqjablxnrraqIKSU-53" target="JfqWmqjablxnrraqIKSU-66" edge="1">
          <mxGeometry relative="1" as="geometry" />
        </mxCell>
        <mxCell id="JfqWmqjablxnrraqIKSU-53" value="(A)Row: I have no other answers, Sydney." style="rounded=0;whiteSpace=wrap;html=1;" parent="1" vertex="1">
          <mxGeometry x="-130" y="940" width="120" height="60" as="geometry" />
        </mxCell>
        <mxCell id="JfqWmqjablxnrraqIKSU-59" style="edgeStyle=orthogonalEdgeStyle;rounded=0;orthogonalLoop=1;jettySize=auto;html=1;exitX=0.5;exitY=1;exitDx=0;exitDy=0;entryX=0.5;entryY=0;entryDx=0;entryDy=0;" parent="1" source="JfqWmqjablxnrraqIKSU-55" target="JfqWmqjablxnrraqIKSU-56" edge="1">
          <mxGeometry relative="1" as="geometry" />
        </mxCell>
        <mxCell id="JfqWmqjablxnrraqIKSU-55" value="(N)Syd: Maybe we&#39;ve... taken the wrong path or something." style="rounded=0;whiteSpace=wrap;html=1;" parent="1" vertex="1">
          <mxGeometry x="30" y="710" width="120" height="60" as="geometry" />
        </mxCell>
        <mxCell id="JfqWmqjablxnrraqIKSU-62" style="edgeStyle=orthogonalEdgeStyle;rounded=0;orthogonalLoop=1;jettySize=auto;html=1;exitX=0.5;exitY=1;exitDx=0;exitDy=0;entryX=0.5;entryY=0;entryDx=0;entryDy=0;" parent="1" source="JfqWmqjablxnrraqIKSU-56" target="JfqWmqjablxnrraqIKSU-60" edge="1">
          <mxGeometry relative="1" as="geometry" />
        </mxCell>
        <mxCell id="JfqWmqjablxnrraqIKSU-56" value="(N)Syd: Are you feeling okay?" style="rounded=0;whiteSpace=wrap;html=1;" parent="1" vertex="1">
          <mxGeometry x="30" y="790" width="120" height="60" as="geometry" />
        </mxCell>
        <mxCell id="JfqWmqjablxnrraqIKSU-65" style="edgeStyle=orthogonalEdgeStyle;rounded=0;orthogonalLoop=1;jettySize=auto;html=1;exitX=0.5;exitY=1;exitDx=0;exitDy=0;entryX=0.5;entryY=0;entryDx=0;entryDy=0;" parent="1" source="JfqWmqjablxnrraqIKSU-60" target="JfqWmqjablxnrraqIKSU-63" edge="1">
          <mxGeometry relative="1" as="geometry" />
        </mxCell>
        <mxCell id="JfqWmqjablxnrraqIKSU-60" value="Smooth Moves +1" style="shape=parallelogram;perimeter=parallelogramPerimeter;whiteSpace=wrap;html=1;fixedSize=1;fillColor=#e1d5e7;strokeColor=#9673a6;" parent="1" vertex="1">
          <mxGeometry x="30" y="870" width="120" height="60" as="geometry" />
        </mxCell>
        <mxCell id="JfqWmqjablxnrraqIKSU-69" style="edgeStyle=orthogonalEdgeStyle;rounded=0;orthogonalLoop=1;jettySize=auto;html=1;exitX=0.5;exitY=1;exitDx=0;exitDy=0;" parent="1" source="JfqWmqjablxnrraqIKSU-63" edge="1">
          <mxGeometry relative="1" as="geometry">
            <mxPoint x="90.42857142857156" y="1160" as="targetPoint" />
          </mxGeometry>
        </mxCell>
        <mxCell id="JfqWmqjablxnrraqIKSU-63" value="(S)Row: No but... thank you." style="rounded=0;whiteSpace=wrap;html=1;" parent="1" vertex="1">
          <mxGeometry x="30" y="950" width="120" height="60" as="geometry" />
        </mxCell>
        <mxCell id="JfqWmqjablxnrraqIKSU-71" style="edgeStyle=orthogonalEdgeStyle;rounded=0;orthogonalLoop=1;jettySize=auto;html=1;exitX=0.5;exitY=1;exitDx=0;exitDy=0;entryX=0.5;entryY=0;entryDx=0;entryDy=0;" parent="1" source="JfqWmqjablxnrraqIKSU-66" target="JfqWmqjablxnrraqIKSU-67" edge="1">
          <mxGeometry relative="1" as="geometry" />
        </mxCell>
        <mxCell id="JfqWmqjablxnrraqIKSU-66" value="(N)Syd: Come on. Let&#39;s try a different route." style="rounded=0;whiteSpace=wrap;html=1;" parent="1" vertex="1">
          <mxGeometry x="30" y="1160" width="120" height="60" as="geometry" />
        </mxCell>
        <mxCell id="JfqWmqjablxnrraqIKSU-67" value="&lt;div&gt;Scene End:&lt;/div&gt;&lt;div&gt;BG01 Bridge Disappearance&lt;/div&gt;" style="shape=process;whiteSpace=wrap;html=1;backgroundOutline=1;fillColor=#d0cee2;strokeColor=#56517e;" parent="1" vertex="1">
          <mxGeometry x="30" y="1280" width="120" height="60" as="geometry" />
        </mxCell>
      </root>
    </mxGraphModel>
  </diagram>
</mxfile>
